<svg xmlns="http://www.w3.org/2000/svg" xml:space="preserve" width="48" height="48" viewBox="0 0 48 48">
  <linearGradient id="uwu__max_svg__a" x1="0" x2="48" y1="26" y2="26" gradientTransform="matrix(1 0 0 -1 0 50)" gradientUnits="userSpaceOnUse">
    <stop offset="0" stop-color="#47bffd"/>
    <stop offset=".5" stop-color="#3a38ec"/>
    <stop offset="1" stop-color="#9f4bdb"/>
  </linearGradient>
  <circle cx="24" cy="24" r="24" fill="url(#uwu__max_svg__a)" fill-rule="evenodd" clip-rule="evenodd"/>
  <path fill="#fff" fill-rule="evenodd" d="M24.4 38.9c-2.9 0-4.3-.5-6.7-2.2-1.5 1.9-6.3 3.5-6.5.8 0-1.9-.5-3.6-.9-5.4-.5-2.2-1.3-4.6-1.3-8.2C9 15.4 16 9 24.3 9S39 15.8 39 24s-6.5 14.8-14.6 14.9m.1-22.5c-4-.2-7.1 2.6-7.8 6.9-.5 3.6.5 8 1.3 8.2.5.1 1.5-.7 2.1-1.4 1.1.7 2.4 1.2 3.6 1.3 4.2.2 7.8-3 8-7.1.1-4.1-3-7.6-7.2-7.9" clip-rule="evenodd"/>
</svg>
