<svg xmlns="http://www.w3.org/2000/svg" xmlns:xlink="http://www.w3.org/1999/xlink" xml:space="preserve" width="48" height="48" viewBox="0 0 48 48">
  <style>
    .st3{fill:#f1117e}
  </style>
  <defs>
    <path id="path1" d="M24 48C10.7 48 0 37.3 0 24S10.7 0 24 0s24 10.7 24 24-10.7 24-24 24"/>
  </defs>
  <clipPath id="path2">
    <use xlink:href="#path1" overflow="visible"/>
  </clipPath>
  <g clip-path="url(#path2)">
    <path fill="#005bff" d="M0 0h48v48H0z"/>
  </g>
  <defs>
    <path id="path3" d="M24 48C10.7 48 0 37.3 0 24S10.7 0 24 0s24 10.7 24 24-10.7 24-24 24"/>
  </defs>
  <clipPath id="clip1">
    <use xlink:href="#path3" overflow="visible"/>
  </clipPath>
  <g clip-path="url(#clip1)">
    <path d="M53.3 41.1c-3.6 3.3-7.9 8.1-13.1 7.9-1.4-1 .8-2.8 1.5-3.6 2.3-2.6 4.6-5.3 6.8-8.1 8.1-10.1 5.4-4.5 4.8 3.8M43.9-8.6c-3.6 8.2-8 16.4-14.2 22.9-4.3 4.5-7.3 7.9-12.6 12C11 31.1 5 34.8-.8 39.8c-3.1 2.8-6.7 5.2-10.6 6.8 0 .3.4 4.9.4 5 .1 0 1.1-.9 1.4-1.1C-.5 44.2 10 39.9 19 33 30 23.7 39.3 12.2 47.2.2c7.2-10 11.9-10.2-3.3-8.8M8.8 2.5C6.6 4.8 4.5 7.1 2.4 9.4l-3.3 3.9c-2 2.3-4.1 4.6-6.5 6.5s-5 3.8-7.5 5.7c0-.1-.3-6.6-.3-6.7 1-1.8 2.1-3.8 2.9-5.7.5-1.1.9-2.3 1.3-3.5.9-2.2 2-4.2 3.7-5.8.9-.9 2-1.5 3.2-2.1C-.7-.1 2.7-2 6.1-3.8c2-1.1 3.5-2.9 5.3-4.3l7.1-.3C15.3-4.7 12.1-1 8.8 2.5m15.6 51.7c2.7-2.7 12-9 10.6-9.9-.1-.1-.3-.1-.4 0-5.1 2.5-10 6-13.6 10.5-.1.1-.2.2-.4.2-.8 0-3.6 0-5.3-.1-.5 0-.7-.6-.3-.9.3-.2.5-.4.7-.5 4.2-3.3 9-5.7 13.5-8.4 5.5-3.2 10.2-7.5 14-12.7 1.7-2.4 3.5-4.7 5.5-6.8l.1-.1C54.5 21.6 56.1 10 64 5.9c.3-.2.7.1.7.4 0 3-4 5.4-4.2 8.5v.1c-3.1 11.1-12.9 19.6-18 25.4-3 3.5-7.6 9.4-11.7 14 0 .1-.1.1-.1.2-.2.6-3.9.4-5.7.3-.7.2-.9-.3-.6-.6M-14 56.9c10.3-7.1 22.5-10.8 32.6-18.1 5.8-5 10.3-11.6 16.2-16.4 1.6-1 1.2.5.6 1.5-5.9 11.9-17.7 18.7-28.8 25.2-7.9 5.1-9.5 9.4-20.6 7.8" class="st3"/>
    <path d="M57.3 7.5c8.9-4.4 6.6-9.1 5.4-18C58-7.2 55.1-3.4 51.6.9 41.1 13.1 37.3 30.9 23.1 40 15.8 44.3 9.8 50.3 3.6 55.9c1.4-.5 9.3.3 9.7-1.8 1.9-3.2 3.9-5.7 7.3-7.2 6.4-3.4 12-8.2 17.7-12.7 7.8-7.7 7.8-22.2 19-26.7m-14.4-16c-5.7 10.3-16 20.8-26.5 28.6-4.1 3.1-8.8 5.1-13.9 6-3.8.7-5.5 1.8-11 6.4-1.9 2-2.9 3.8-4.5 7 0-.1-.4-9.8-.4-9.8 4.4-5.9 11-8.5 16.1-13.6 4.2-4.3 7.1-9.8 10.9-14.4 1.9-2.4 8-7.9 9.1-9.3l6.3-.3C26-4.3 23.1-.8 17.1 6.4c-.7.9-6.7 7.1-8.9 10.5-.7 1.1-1.2 2.2-.7 2.7.6.4 1.4-.3 2.7-1.1C17.7 13.8 22.9 9.4 29 1.9c9.7-12.4 2.2-11.3 13.9-10.4" class="st3"/>
  </g>
  <g clip-path="url(#clip1)">
    <path fill="#fff" d="M20.2 27.6 16 28.7l3.4-8.5c.1-.2 0-.4-.2-.5H19l-7.7 2.1c-.7.2-1.1.9-.9 1.6s.9 1.1 1.6.9l3.5-.9-3.5 8.4c-.1.2 0 .4.2.5h.2l8.4-2.3c.7-.2 1-.9.8-1.6-.1-.6-.8-1-1.4-.8M45 12.8c-.7.2-1.1.9-.9 1.6l1.1 4.1-8-3.5c-.2-.1-.4 0-.5.2v.2l2.3 8.5c.2.7.9 1.1 1.6.9s1.1-.9.9-1.6l-1.1-4.1 8 3.5c.2.1.4 0 .5-.2v-.2l-2.3-8.5c-.2-.7-.9-1.1-1.6-.9M29.5 25.3c-2.8.8-5.3-.2-5.7-1.5s1.3-3.4 4.2-4.1 5.3.2 5.7 1.5c.3 1.3-1.3 3.4-4.2 4.1m-2.1-8c-4.1 1.1-6.7 4.3-6 7.2.8 2.9 4.7 4.4 8.8 3.3s6.7-4.3 6-7.2c-.8-3-4.8-4.4-8.8-3.3m-22 14.5c-1.6.4-3.1-.5-3.6-2.1-.4-1.6.5-3.1 2.1-3.6 1.6-.4 3.1.5 3.6 2.1.3 1.6-.6 3.2-2.1 3.6m-2.2-8.1c-2.9.8-4.6 3.8-3.9 6.7.8 2.9 3.8 4.6 6.7 3.9 2.9-.8 4.6-3.8 3.9-6.7-.8-2.9-3.8-4.6-6.7-3.9"/>
  </g>
  <defs>
    <path id="path4" d="M24 48C10.7 48 0 37.3 0 24S10.7 0 24 0s24 10.7 24 24-10.7 24-24 24"/>
  </defs>
  <clipPath id="clip2">
    <use xlink:href="#path4" overflow="visible"/>
  </clipPath>
  <g clip-path="url(#clip2)">
    <path fill="none" d="M0 0h48v48H0z"/>
  </g>
  <defs>
    <path id="path5" d="M24 48C10.7 48 0 37.3 0 24S10.7 0 24 0s24 10.7 24 24-10.7 24-24 24"/>
  </defs>
  <clipPath id="clip3">
    <use xlink:href="#path5" overflow="visible"/>
  </clipPath>
  <g clip-path="url(#clip3)">
    <defs>
      <path id="path5" d="M0 0h48v48H0z"/>
    </defs>
    <clipPath id="clip4">
      <use xlink:href="#path5" overflow="visible"/>
    </clipPath>
  </g>
</svg>
