<svg xmlns="http://www.w3.org/2000/svg" xml:space="preserve" width="48" height="48" x="0" y="0" viewBox="0 0 48 48">
  <style>
    .st1{fill:#fff}
  </style>
  <g transform="translate(1.407 1.407)scale(2.81)">
    <circle cx="8" cy="8" r="8.5" fill="#00a7ce"/>
    <path d="m10.6 12.5.9-.5c.4-.2.5-.8.1-1.1l-1.4-1c-.2-.2-.5-.2-.7 0l-.4.2q-.3.15-.6 0C7.4 9.5 6.6 8.7 6 7.6q-.15-.3 0-.6l.2-.4c.1-.2.1-.5 0-.7l-1-1.4c-.4-.4-1-.4-1.2.1l-.5.9c-.2.4-.2.9 0 1.4q1.8 3.9 5.7 5.7c.4.2.9.2 1.4-.1M12.3 8.9c-.2 0-.4-.2-.4-.4 0-2.3-1.9-4.2-4.2-4.2-.3-.1-.5-.3-.5-.5s.2-.4.4-.4c2.8 0 5.1 2.3 5.1 5.1 0 .2-.2.4-.4.4" class="st1"/>
    <path d="M10.6 8.9c-.2 0-.4-.2-.4-.4C10.2 7.1 9.1 6 7.7 6c-.2 0-.4-.2-.4-.4s.2-.4.4-.4c1.9 0 3.4 1.5 3.4 3.4-.1.1-.3.3-.5.3" class="st1"/>
  </g>
</svg>
