<svg xmlns="http://www.w3.org/2000/svg" xml:space="preserve" width="48" height="48" viewBox="0 0 48 48">
  <linearGradient id="uwu__wb_svg__a" x1="17.395" x2="32.903" y1="46.684" y2="-6.579" gradientUnits="userSpaceOnUse">
    <stop offset="0" stop-color="#7f30e3"/>
    <stop offset="1" stop-color="#f90479"/>
  </linearGradient>
  <circle cx="24" cy="24" r="24" fill="url(#uwu__wb_svg__a)"/>
  <path fill="#fff" d="M35.6 17.1c-1.6 0-3 .5-4.2 1.3v-7.6H28v13.9c0 4.2 3.4 7.7 7.6 7.7s7.7-3.4 7.7-7.7-3.5-7.7-7.7-7.6m-15.4 8.6-3.1-8.1h-2.4l-3.1 8.1-3.1-8.1H4.8l5.5 14.3h2.4l3.3-8.5 3.3 8.5h2.4L27 17.6h-3.7zM35.6 29c-2.3 0-4.2-1.9-4.2-4.3s1.8-4.2 4.2-4.2 4.2 1.9 4.2 4.2c0 2.4-1.9 4.3-4.2 4.3"/>
</svg>
