<svg xmlns="http://www.w3.org/2000/svg" xml:space="preserve" id="uwu__whatsapp_svg__uwu__whatsapp_svg__Layer_1" width="48" height="48" x="0" y="0" viewBox="0 0 48 48">
  <style>
    .uwu__whatsapp_svg__st1{fill:#fff}
  </style>
  <g transform="translate(1.407 1.407)scale(2.81)">
    <circle cx="8" cy="8" r="8.5" fill="#2ab540"/>
    <path d="M2.6 8c0 1 .3 1.9.7 2.7l-.8 2.8 2.9-.8c.8.4 1.7.7 2.6.7 3 0 5.5-2.5 5.5-5.5 0-1.5-.6-2.9-1.6-3.9S9.5 2.4 8 2.4C5 2.5 2.6 5 2.6 8m1.7 2.6-.1-.2c-.5-.7-.7-1.5-.7-2.4 0-2.5 2.1-4.6 4.6-4.6 1.2 0 2.4.5 3.2 1.3.9.9 1.3 2 1.3 3.2 0 2.5-2.1 4.6-4.6 4.6-.8 0-1.6-.2-2.3-.6l-.2-.1-1.7.5zm3.8 2.9" class="uwu__whatsapp_svg__st1"/>
    <path d="M6.7 5.7c-.1-.2-.2-.2-.3-.2h-.3c-.1 0-.2 0-.4.2-.1.1-.4.4-.4 1.1s.5 1.3.6 1.4 1 1.5 2.3 2.1c1.2.5 1.4.4 1.6.3s.8-.3.9-.7c.1-.3.1-.6.1-.7s-.1-.1-.3-.2c-.1-.1-.8-.4-.9-.4s-.2-.1-.3.1-.3.5-.4.6q-.15.15-.3 0c-.1 0-.6-.2-1.1-.6-.4-.4-.7-.8-.8-1-.1-.1 0-.2.1-.3l.2-.2c.1-.1.1-.2.1-.2v-.2c0-.2-.3-.8-.4-1.1" class="uwu__whatsapp_svg__st1"/>
  </g>
</svg>
