<svg width="93" height="77" viewBox="0 0 93 77" fill="none" xmlns="http://www.w3.org/2000/svg">
<path opacity="0.15" d="M0 76.2625V57.2231C0 50.8242 1.04377 44.1631 3.13131 37.2397C5.32323 30.2114 8.45455 23.4978 12.5253 17.0989C16.596 10.5951 21.5017 4.98295 27.2424 0.262451L43.6818 11.749C38.8805 18.6724 35.1751 25.8056 32.5657 33.1486C29.9562 40.3867 28.6515 48.2542 28.6515 56.7511V76.2625H0ZM49.3182 76.2625V57.2231C49.3182 50.8242 50.3619 44.1631 52.4495 37.2397C54.6414 30.2114 57.7727 23.4978 61.8434 17.0989C65.9141 10.5951 70.8199 4.98295 76.5606 0.262451L93 11.749C88.1986 18.6724 84.4933 25.8056 81.8838 33.1486C79.2744 40.3867 77.9697 48.2542 77.9697 56.7511V76.2625H49.3182Z" fill="#33383C"/>
</svg>
